<svg width="467" height="1277" viewBox="0 0 467 1277" fill="none" xmlns="http://www.w3.org/2000/svg">
<path d="M462.828 1247.47C469.156 1255.19 468.032 1266.57 460.315 1272.9C452.597 1279.23 441.211 1278.1 434.882 1270.39L84.8721 819.619C84.4564 819.084 84.2308 818.425 84.2308 817.747V799.429C84.2308 796.571 87.8072 795.281 89.6316 797.481L462.828 1247.47ZM2.45668 702.827C5.32385 700.476 9.55402 700.894 11.9054 703.761L65.8275 768.779C66.2817 769.326 66.5303 770.016 66.5303 770.727V787.091C66.5303 789.998 62.8509 791.259 61.068 788.963L1.52266 712.276C-0.828619 709.409 -0.41047 705.179 2.45668 702.827Z" fill="#141413"/>
<path d="M462.36 1066.34C469.411 1074.93 468.158 1087.62 459.559 1094.68C450.96 1101.73 438.271 1100.47 431.219 1091.87L84.587 635.926C84.3552 635.624 84.2296 635.254 84.2296 634.874V623.79C84.2296 622.175 86.2496 621.445 87.2816 622.687L462.36 1066.34ZM2.45671 523.382C5.32388 521.031 9.55407 521.449 11.9054 524.316L65.8244 589.195C66.2798 589.743 66.5291 590.433 66.5291 591.146V608.427C66.5291 611.341 62.8339 612.597 61.0577 610.287L1.52269 532.831C-0.828643 529.964 -0.410461 525.733 2.45671 523.382Z" fill="#141413"/>
<path d="M462.68 883.131C469.249 891.142 468.081 902.963 460.07 909.533C452.059 916.102 440.239 914.933 433.669 906.923L86.5216 448.005C86.251 447.655 86.1042 447.225 86.1042 446.783V434.526C86.1042 432.658 88.442 431.814 89.6352 433.252L462.68 883.131ZM2.46451 339.052C5.33168 336.701 9.56186 337.119 11.9132 339.986L65.8311 404.953C66.2857 405.501 66.5345 406.19 66.5345 406.902V423.57C66.5345 426.48 62.8499 427.739 61.0692 425.438L1.53049 348.501C-0.820815 345.633 -0.402654 341.403 2.46451 339.052Z" fill="#141413"/>
<path d="M462.36 976.611C469.411 985.21 468.158 997.899 459.559 1004.95C450.96 1012 438.271 1010.75 431.219 1002.15L86.4786 547.372C86.2078 547.02 86.0609 546.587 86.0609 546.143V533.186C86.0609 531.299 88.4221 530.445 89.6285 531.897L462.36 976.611ZM2.45671 433.657C5.32388 431.306 9.55407 431.724 11.9054 434.591L65.8244 499.471C66.2798 500.019 66.5291 500.709 66.5291 501.421V518.702C66.5291 521.617 62.8339 522.873 61.0577 520.562L1.52269 443.106C-0.828643 440.239 -0.410461 436.009 2.45671 433.657Z" fill="#141413"/>
<path d="M463.257 800.4C468.923 807.309 467.916 817.503 461.007 823.169C454.099 828.835 443.904 827.827 438.238 820.919L85.8842 359.197C85.6695 358.924 85.5528 358.586 85.5528 358.238V349.49C85.5528 348.032 87.3781 347.374 88.3079 348.498L463.257 800.4ZM2.45671 254.212C5.32383 251.861 9.55411 252.279 11.9054 255.146L65.8276 320.286C66.2806 320.833 66.5285 321.522 66.5285 322.232V337.768C66.5285 340.668 62.8636 341.933 61.0747 339.65L1.52269 263.661C-0.828643 260.794 -0.410461 256.563 2.45671 254.212Z" fill="#141413"/>
<path d="M463.999 718.844C468.52 724.356 467.716 732.49 462.203 737.01C456.691 741.531 448.557 740.726 444.037 735.214L85.7644 279.852C85.5177 279.542 85.3833 279.158 85.3833 278.762V270.057C85.3833 268.415 87.4393 267.676 88.484 268.943L463.999 718.844ZM2.45671 169.984C5.32388 167.632 9.55407 168.05 11.9054 170.918L65.8325 236.276C66.2836 236.823 66.5303 237.509 66.5303 238.218V252.347C66.5303 255.235 62.8901 256.507 61.091 254.248L1.52269 179.432C-0.828643 176.565 -0.410461 172.335 2.45671 169.984Z" fill="#141413"/>
<path d="M464.507 636.441C468.244 640.998 467.579 647.723 463.022 651.46C458.466 655.196 451.742 654.531 448.005 649.975L84.9039 198.807C84.4675 198.265 84.2296 197.59 84.2296 196.893V183.043C84.2296 180.18 87.8175 178.893 89.6374 181.104L464.507 636.441ZM2.45667 85.7531C5.32383 83.4018 9.5546 83.82 11.9059 86.6872L65.8334 152.19C66.2831 152.737 66.5291 153.422 66.5291 154.13V167.316C66.5291 170.196 62.9057 171.473 61.0998 169.229L1.52265 95.2024C-0.828647 92.3353 -0.410421 88.1045 2.45667 85.7531Z" fill="#141413"/>
<path d="M464.671 552.773C468.166 557.036 467.545 563.327 463.282 566.823C459.019 570.318 452.729 569.696 449.233 565.434L84.9132 114.238C84.4749 113.695 84.2358 113.018 84.2358 112.32V98.8759C84.2358 96.0119 87.8248 94.7253 89.6443 96.9369L464.671 552.773ZM2.46412 1.52267C5.33128 -0.828649 9.56205 -0.410438 11.9134 2.45669L65.8403 68.0035C66.2896 68.5497 66.5353 69.2351 66.5353 69.9424V82.8403C66.5353 85.7181 62.9171 86.9966 61.1091 84.7575L1.5307 10.9719C-0.820605 8.10481 -0.402945 3.87403 2.46412 1.52267Z" fill="#141413"/>
<path d="M462.602 1156.9C469.292 1165.06 468.102 1177.1 459.944 1183.79C451.786 1190.48 439.749 1189.29 433.058 1181.13L84.8718 730.432C84.459 729.898 84.235 729.242 84.235 728.566V709.605C84.235 706.748 87.8099 705.457 89.6349 707.656L462.602 1156.9ZM2.46452 613.105C5.33165 610.753 9.56192 611.172 11.9132 614.039L65.8308 678.984C66.2856 679.531 66.5346 680.221 66.5346 680.933V697.754C66.5346 700.665 62.8472 701.923 61.0677 699.62L1.5305 622.554C-0.82083 619.687 -0.402648 615.456 2.46452 613.105Z" fill="#141413"/>
</svg>
